#N canvas 353 178 766 640 10;
#X obj 15 131 oscparse;
#X obj 15 153 list trim;
#X obj 15 109 netreceive -u -b;
#X obj 15 64 loadbang;
#X msg 15 87 listen 5432;
#X obj 32 208 unpack f f f;
#X obj 32 230 vsl 20 128 0 1 0 0 empty empty empty 0 -9 0 10 -262144
-1 -1 1947 1;
#X obj 66 230 vsl 20 128 0 1 0 0 empty empty empty 0 -9 0 10 -262144
-1 -1 5239 1;
#X obj 101 230 vsl 20 128 0 1 0 0 empty empty empty 0 -9 0 10 -262144
-1 -1 5481 1;
#X obj 232 208 unpack f f f;
#X obj 232 230 vsl 20 128 0 1 0 0 empty empty empty 0 -9 0 10 -262144
-1 -1 5452 1;
#X obj 266 230 vsl 20 128 0 1 0 0 empty empty empty 0 -9 0 10 -262144
-1 -1 8169 1;
#X obj 301 230 vsl 20 128 0 1 0 0 empty empty empty 0 -9 0 10 -262144
-1 -1 4848 1;
#X obj 333 208 unpack f f f;
#X obj 333 230 vsl 20 128 0 1 0 0 empty empty empty 0 -9 0 10 -262144
-1 -1 4476 1;
#X obj 367 230 vsl 20 128 0 1 0 0 empty empty empty 0 -9 0 10 -262144
-1 -1 7173 1;
#X obj 402 230 vsl 20 128 0 1 0 0 empty empty empty 0 -9 0 10 -262144
-1 -1 8060 1;
#X obj 433 208 unpack f f f;
#X obj 433 230 vsl 20 128 0 1 0 0 empty empty empty 0 -9 0 10 -262144
-1 -1 4293 1;
#X obj 467 230 vsl 20 128 0 1 0 0 empty empty empty 0 -9 0 10 -262144
-1 -1 6907 1;
#X obj 502 230 vsl 20 128 0 1 0 0 empty empty empty 0 -9 0 10 -262144
-1 -1 7768 1;
#X obj 534 208 unpack f f f;
#X obj 534 230 vsl 20 128 0 1 0 0 empty empty empty 0 -9 0 10 -262144
-1 -1 3137 1;
#X obj 568 230 vsl 20 128 0 1 0 0 empty empty empty 0 -9 0 10 -262144
-1 -1 6559 1;
#X obj 603 230 vsl 20 128 0 1 0 0 empty empty empty 0 -9 0 10 -262144
-1 -1 7360 1;
#X obj 635 207 unpack f f f;
#X obj 635 229 vsl 20 128 0 1 0 0 empty empty empty 0 -9 0 10 -262144
-1 -1 3017 1;
#X obj 669 229 vsl 20 128 0 1 0 0 empty empty empty 0 -9 0 10 -262144
-1 -1 6215 1;
#X obj 704 229 vsl 20 128 0 1 0 0 empty empty empty 0 -9 0 10 -262144
-1 -1 5135 1;
#X obj 148 231 vsl 20 128 0 1 0 0 empty empty empty 0 -9 0 10 -262144
-1 -1 304 1;
#X obj 182 231 vsl 20 128 0 1 0 0 empty empty empty 0 -9 0 10 -262144
-1 -1 0 1;
#X obj 14 451 unpack f f f;
#X obj 14 473 vsl 20 128 0 1 0 0 empty empty empty 0 -9 0 10 -262144
-1 -1 5053 1;
#X obj 48 473 vsl 20 128 0 1 0 0 empty empty empty 0 -9 0 10 -262144
-1 -1 3111 1;
#X obj 83 473 vsl 20 128 0 1 0 0 empty empty empty 0 -9 0 10 -262144
-1 -1 3668 1;
#X obj 214 451 unpack f f f;
#X obj 214 473 vsl 20 128 0 1 0 0 empty empty empty 0 -9 0 10 -262144
-1 -1 3284 1;
#X obj 248 473 vsl 20 128 0 1 0 0 empty empty empty 0 -9 0 10 -262144
-1 -1 5204 1;
#X obj 283 473 vsl 20 128 0 1 0 0 empty empty empty 0 -9 0 10 -262144
-1 -1 475 1;
#X obj 315 451 unpack f f f;
#X obj 315 473 vsl 20 128 0 1 0 0 empty empty empty 0 -9 0 10 -262144
-1 -1 2826 1;
#X obj 349 473 vsl 20 128 0 1 0 0 empty empty empty 0 -9 0 10 -262144
-1 -1 5080 1;
#X obj 384 473 vsl 20 128 0 1 0 0 empty empty empty 0 -9 0 10 -262144
-1 -1 3174 1;
#X obj 415 451 unpack f f f;
#X obj 415 473 vsl 20 128 0 1 0 0 empty empty empty 0 -9 0 10 -262144
-1 -1 2824 1;
#X obj 449 473 vsl 20 128 0 1 0 0 empty empty empty 0 -9 0 10 -262144
-1 -1 4498 1;
#X obj 484 473 vsl 20 128 0 1 0 0 empty empty empty 0 -9 0 10 -262144
-1 -1 3576 1;
#X obj 516 451 unpack f f f;
#X obj 516 473 vsl 20 128 0 1 0 0 empty empty empty 0 -9 0 10 -262144
-1 -1 3399 1;
#X obj 550 473 vsl 20 128 0 1 0 0 empty empty empty 0 -9 0 10 -262144
-1 -1 3961 1;
#X obj 585 473 vsl 20 128 0 1 0 0 empty empty empty 0 -9 0 10 -262144
-1 -1 3548 1;
#X obj 617 450 unpack f f f;
#X obj 617 472 vsl 20 128 0 1 0 0 empty empty empty 0 -9 0 10 -262144
-1 -1 4248 1;
#X obj 651 472 vsl 20 128 0 1 0 0 empty empty empty 0 -9 0 10 -262144
-1 -1 4043 1;
#X obj 686 472 vsl 20 128 0 1 0 0 empty empty empty 0 -9 0 10 -262144
-1 -1 3356 1;
#X obj 130 474 vsl 20 128 0 1 0 0 empty empty empty 0 -9 0 10 -262144
-1 -1 0 1;
#X obj 164 474 vsl 20 128 0 1 0 0 empty empty empty 0 -9 0 10 -262144
-1 -1 1688 1;
#N canvas 538 238 538 272 LEFT-HAND 0;
#X obj 38 25 inlet;
#X obj 38 152 outlet;
#X obj 38 70 route position grab pinch finger0 finger1 finger2 finger3
finger4;
#X obj 88 152 outlet;
#X obj 138 152 outlet;
#X obj 195 129 route position;
#X obj 195 151 outlet;
#X obj 245 149 route position;
#X obj 245 171 outlet;
#X obj 295 169 route position;
#X obj 295 191 outlet;
#X obj 342 191 route position;
#X obj 342 213 outlet;
#X obj 392 211 route position;
#X obj 392 233 outlet;
#X obj 38 47 route hand0, f 101;
#X connect 0 0 15 0;
#X connect 2 0 1 0;
#X connect 2 1 3 0;
#X connect 2 2 4 0;
#X connect 2 3 5 0;
#X connect 2 4 7 0;
#X connect 2 5 9 0;
#X connect 2 6 11 0;
#X connect 2 7 13 0;
#X connect 5 0 6 0;
#X connect 7 0 8 0;
#X connect 9 0 10 0;
#X connect 11 0 12 0;
#X connect 13 0 14 0;
#X connect 15 0 2 0;
#X restore 32 182 pd LEFT-HAND;
#N canvas 538 238 538 272 RIGHT-HAND 0;
#X obj 38 25 inlet;
#X obj 38 47 route hand1;
#X obj 38 152 outlet;
#X obj 38 70 route position grab pinch finger0 finger1 finger2 finger3
finger4;
#X obj 88 152 outlet;
#X obj 138 152 outlet;
#X obj 195 129 route position;
#X obj 195 151 outlet;
#X obj 245 149 route position;
#X obj 245 171 outlet;
#X obj 295 169 route position;
#X obj 295 191 outlet;
#X obj 342 191 route position;
#X obj 342 213 outlet;
#X obj 392 211 route position;
#X obj 392 233 outlet, f 101;
#X connect 0 0 1 0;
#X connect 1 0 3 0;
#X connect 3 0 2 0;
#X connect 3 1 4 0;
#X connect 3 2 5 0;
#X connect 3 3 6 0;
#X connect 3 4 8 0;
#X connect 3 5 10 0;
#X connect 3 6 12 0;
#X connect 3 7 14 0;
#X connect 6 0 7 0;
#X connect 8 0 9 0;
#X connect 10 0 11 0;
#X connect 12 0 13 0;
#X connect 14 0 15 0;
#X restore 14 425 pd RIGHT-HAND;
#X text 145 365 pinch grab;
#X text 30 366 hand position;
#X text 254 365 finger 0;
#X text 356 364 finger 1;
#X text 454 363 finger 2;
#X text 553 364 finger 3;
#X text 653 365 finger 4;
#X text 122 607 pinch grab;
#X text 7 608 hand position;
#X text 231 607 finger 0;
#X text 333 606 finger 1;
#X text 431 605 finger 2;
#X text 530 606 finger 3;
#X text 630 607 finger 4;
#X text 16 5 LEAP MAPPER RECEIVER;
#X text 16 26 Download Leap Mapper at www.balandinodidonato.com/leapmapper
;
#X connect 0 0 1 0;
#X connect 1 0 57 0;
#X connect 1 0 58 0;
#X connect 2 0 0 0;
#X connect 3 0 4 0;
#X connect 4 0 2 0;
#X connect 5 0 6 0;
#X connect 5 1 7 0;
#X connect 5 2 8 0;
#X connect 9 0 10 0;
#X connect 9 1 11 0;
#X connect 9 2 12 0;
#X connect 13 0 14 0;
#X connect 13 1 15 0;
#X connect 13 2 16 0;
#X connect 17 0 18 0;
#X connect 17 1 19 0;
#X connect 17 2 20 0;
#X connect 21 0 22 0;
#X connect 21 1 23 0;
#X connect 21 2 24 0;
#X connect 25 0 26 0;
#X connect 25 1 27 0;
#X connect 25 2 28 0;
#X connect 31 0 32 0;
#X connect 31 1 33 0;
#X connect 31 2 34 0;
#X connect 35 0 36 0;
#X connect 35 1 37 0;
#X connect 35 2 38 0;
#X connect 39 0 40 0;
#X connect 39 1 41 0;
#X connect 39 2 42 0;
#X connect 43 0 44 0;
#X connect 43 1 45 0;
#X connect 43 2 46 0;
#X connect 47 0 48 0;
#X connect 47 1 49 0;
#X connect 47 2 50 0;
#X connect 51 0 52 0;
#X connect 51 1 53 0;
#X connect 51 2 54 0;
#X connect 57 0 5 0;
#X connect 57 1 29 0;
#X connect 57 2 30 0;
#X connect 57 3 9 0;
#X connect 57 4 13 0;
#X connect 57 5 17 0;
#X connect 57 6 21 0;
#X connect 57 7 25 0;
#X connect 58 0 31 0;
#X connect 58 1 55 0;
#X connect 58 2 56 0;
#X connect 58 3 35 0;
#X connect 58 4 39 0;
#X connect 58 5 43 0;
#X connect 58 6 47 0;
#X connect 58 7 51 0;
