#N canvas 850 61 344 208 10;
#X obj 14 37 udpreceive 5432;
#N canvas 538 238 450 300 hand-position 0;
#X obj 38 25 inlet;
#X obj 38 47 routeOSC /handPosition;
#X obj 38 69 route 0 1;
#X obj 38 141 print Left Hand;
#X obj 38 91 t l l;
#X obj 65 117 outlet;
#X obj 140 91 t l l;
#X obj 167 117 outlet;
#X obj 140 141 print Right Hand;
#X obj 269 141 outlet;
#X connect 0 0 1 0;
#X connect 1 0 2 0;
#X connect 1 1 9 0;
#X connect 2 0 4 0;
#X connect 2 1 6 0;
#X connect 4 0 3 0;
#X connect 4 1 5 0;
#X connect 6 0 8 0;
#X connect 6 1 7 0;
#X restore 14 84 pd hand-position;
#X msg 14 11 port 5432;
#X obj 14 59 unpackOSC;
#N canvas 463 324 767 291 fingers-position 0;
#X obj 38 25 inlet;
#X obj 38 69 route 0 1;
#X obj 38 111 t l l;
#X obj 38 47 routeOSC /fingerPosition;
#X obj 38 211 print Left-Fingers;
#X obj 508 196 outlet;
#X obj 65 137 route 0 1 2 3 4;
#X obj 82 169 outlet;
#X obj 115 189 outlet;
#X obj 132 169 outlet;
#X obj 162 189 outlet;
#X obj 218 111 t l l;
#X obj 245 137 route 0 1 2 3 4;
#X obj 245 189 outlet;
#X obj 262 169 outlet;
#X obj 295 189 outlet;
#X obj 312 169 outlet;
#X obj 342 189 outlet;
#X obj 218 211 print Right-Fingers;
#X obj 65 189 outlet;
#X text 585 37 1 - Left Thumb;
#X text 585 50 2 - Left Index Finger;
#X text 585 63 3 - Left Middle Finger;
#X text 585 77 4 - Left Ring Finger;
#X text 585 91 5 - Left Pinky Finger;
#X text 585 105 6 - Right Thumb;
#X text 585 118 7 - Right Index Finger;
#X text 585 131 8 - Right Middle Finger;
#X text 585 145 9 - Right Ring Finger;
#X text 585 159 10 - Right Pinky Finger;
#X text 581 24 OUTLET;
#X connect 0 0 3 0;
#X connect 1 0 2 0;
#X connect 1 1 11 0;
#X connect 2 0 4 0;
#X connect 2 1 6 0;
#X connect 3 0 1 0;
#X connect 3 1 5 0;
#X connect 6 0 19 0;
#X connect 6 1 7 0;
#X connect 6 2 8 0;
#X connect 6 3 9 0;
#X connect 6 4 10 0;
#X connect 11 0 18 0;
#X connect 11 1 12 0;
#X connect 12 0 13 0;
#X connect 12 1 14 0;
#X connect 12 2 15 0;
#X connect 12 3 16 0;
#X connect 12 4 17 0;
#X restore 107 110 pd fingers-position;
#N canvas 673 98 608 206 gestures 0;
#X obj 38 25 inlet;
#X obj 181 139 outlet;
#X obj 65 139 outlet;
#X text 491 24 OUTLET;
#X obj 38 47 routeOSC /pinch /grab;
#X obj 154 111 t f f;
#X obj 38 111 t f f;
#X obj 38 69 route 0 1;
#X obj 38 161 print Left-Pinch;
#X obj 402 139 outlet;
#X obj 293 139 outlet;
#X obj 375 111 t f f;
#X obj 266 111 t f f;
#X obj 266 69 route 0 1;
#X text 495 37 1 - Left Pinch;
#X text 495 50 2 - Left Grab;
#X text 495 64 3 - Right Pinch;
#X text 495 77 4 - Right Grab;
#X obj 154 161 print Right-Pinch;
#X obj 266 161 print Left-Grab;
#X obj 375 161 print Right-Grab;
#X connect 0 0 4 0;
#X connect 4 0 7 0;
#X connect 4 1 13 0;
#X connect 5 0 18 0;
#X connect 5 1 1 0;
#X connect 6 0 8 0;
#X connect 6 1 2 0;
#X connect 7 0 6 0;
#X connect 7 1 5 0;
#X connect 11 0 20 0;
#X connect 11 1 9 0;
#X connect 12 0 19 0;
#X connect 12 1 10 0;
#X connect 13 0 12 0;
#X connect 13 1 11 0;
#X restore 218 138 pd gestures;
#X connect 0 0 3 0;
#X connect 1 2 4 0;
#X connect 2 0 0 0;
#X connect 3 0 1 0;
#X connect 4 10 5 0;
